<mxfile host="app.diagrams.net" agent="Mozilla/5.0 (Windows NT 10.0; Win64; x64) AppleWebKit/537.36 (KHTML, like Gecko) Chrome/129.0.0.0 Safari/537.36" version="24.7.15">
  <diagram name="Page-1" id="i_AusdiiPjCdpk8-Yowz">
    <mxGraphModel dx="794" dy="446" grid="1" gridSize="10" guides="1" tooltips="1" connect="1" arrows="1" fold="1" page="1" pageScale="1" pageWidth="850" pageHeight="1100" math="0" shadow="0">
      <root>
        <mxCell id="0" />
        <mxCell id="1" parent="0" />
        <mxCell id="HQuJvWMQ3h9jCrThub2U-1" value="" style="rounded=0;whiteSpace=wrap;html=1;" vertex="1" parent="1">
          <mxGeometry x="60" y="30" width="720" height="360" as="geometry" />
        </mxCell>
        <mxCell id="HQuJvWMQ3h9jCrThub2U-2" value="PROD 1" style="points=[[0,0],[0.25,0],[0.5,0],[0.75,0],[1,0],[1,0.25],[1,0.5],[1,0.75],[1,1],[0.75,1],[0.5,1],[0.25,1],[0,1],[0,0.75],[0,0.5],[0,0.25]];outlineConnect=0;gradientColor=none;html=1;whiteSpace=wrap;fontSize=12;fontStyle=0;container=1;pointerEvents=0;collapsible=0;recursiveResize=0;shape=mxgraph.aws4.group;grIcon=mxgraph.aws4.group_ec2_instance_contents;strokeColor=#D86613;fillColor=none;verticalAlign=top;align=left;spacingLeft=30;fontColor=#D86613;dashed=0;" vertex="1" parent="1">
          <mxGeometry x="80" y="80" width="238" height="265" as="geometry" />
        </mxCell>
        <mxCell id="HQuJvWMQ3h9jCrThub2U-7" value="" style="outlineConnect=0;dashed=0;verticalLabelPosition=bottom;verticalAlign=top;align=center;html=1;shape=mxgraph.aws3.mysql_db_instance;fillColor=#2E73B8;gradientColor=none;" vertex="1" parent="HQuJvWMQ3h9jCrThub2U-2">
          <mxGeometry x="20" y="90" width="100" height="92.5" as="geometry" />
        </mxCell>
        <mxCell id="HQuJvWMQ3h9jCrThub2U-8" value="Master 1" style="text;html=1;align=center;verticalAlign=middle;whiteSpace=wrap;rounded=0;" vertex="1" parent="HQuJvWMQ3h9jCrThub2U-2">
          <mxGeometry x="30" y="180" width="60" height="20" as="geometry" />
        </mxCell>
        <mxCell id="HQuJvWMQ3h9jCrThub2U-12" value="" style="image;aspect=fixed;perimeter=ellipsePerimeter;html=1;align=center;shadow=0;dashed=0;spacingTop=3;image=img/lib/active_directory/firewall.svg;" vertex="1" parent="HQuJvWMQ3h9jCrThub2U-2">
          <mxGeometry x="190" y="90" width="47.58" height="78" as="geometry" />
        </mxCell>
        <mxCell id="HQuJvWMQ3h9jCrThub2U-16" value="" style="endArrow=classic;html=1;rounded=0;entryX=0;entryY=0.25;entryDx=0;entryDy=0;dashed=1;fillColor=#dae8fc;strokeColor=#6c8ebf;" edge="1" parent="HQuJvWMQ3h9jCrThub2U-2" target="HQuJvWMQ3h9jCrThub2U-12">
          <mxGeometry width="50" height="50" relative="1" as="geometry">
            <mxPoint x="120" y="110" as="sourcePoint" />
            <mxPoint x="170" y="60" as="targetPoint" />
          </mxGeometry>
        </mxCell>
        <mxCell id="HQuJvWMQ3h9jCrThub2U-21" value="" style="endArrow=classic;html=1;rounded=0;fillColor=#dae8fc;strokeColor=#6c8ebf;dashed=1;" edge="1" parent="HQuJvWMQ3h9jCrThub2U-2">
          <mxGeometry width="50" height="50" relative="1" as="geometry">
            <mxPoint x="190" y="140" as="sourcePoint" />
            <mxPoint x="120" y="140" as="targetPoint" />
          </mxGeometry>
        </mxCell>
        <mxCell id="HQuJvWMQ3h9jCrThub2U-5" value="PROD 2" style="points=[[0,0],[0.25,0],[0.5,0],[0.75,0],[1,0],[1,0.25],[1,0.5],[1,0.75],[1,1],[0.75,1],[0.5,1],[0.25,1],[0,1],[0,0.75],[0,0.5],[0,0.25]];outlineConnect=0;gradientColor=none;html=1;whiteSpace=wrap;fontSize=12;fontStyle=0;container=1;pointerEvents=0;collapsible=0;recursiveResize=0;shape=mxgraph.aws4.group;grIcon=mxgraph.aws4.group_ec2_instance_contents;strokeColor=#D86613;fillColor=none;verticalAlign=top;align=left;spacingLeft=30;fontColor=#D86613;dashed=0;" vertex="1" parent="1">
          <mxGeometry x="510" y="80" width="230" height="265" as="geometry" />
        </mxCell>
        <mxCell id="HQuJvWMQ3h9jCrThub2U-14" value="" style="image;aspect=fixed;perimeter=ellipsePerimeter;html=1;align=center;shadow=0;dashed=0;spacingTop=3;image=img/lib/active_directory/firewall.svg;" vertex="1" parent="HQuJvWMQ3h9jCrThub2U-5">
          <mxGeometry x="-20" y="92" width="47.58" height="78" as="geometry" />
        </mxCell>
        <mxCell id="HQuJvWMQ3h9jCrThub2U-18" value="" style="endArrow=classic;html=1;rounded=0;entryX=0;entryY=0.257;entryDx=0;entryDy=0;entryPerimeter=0;fillColor=#dae8fc;strokeColor=#6c8ebf;dashed=1;" edge="1" parent="HQuJvWMQ3h9jCrThub2U-5" target="HQuJvWMQ3h9jCrThub2U-9">
          <mxGeometry width="50" height="50" relative="1" as="geometry">
            <mxPoint x="20" y="110" as="sourcePoint" />
            <mxPoint x="70" y="60" as="targetPoint" />
          </mxGeometry>
        </mxCell>
        <mxCell id="HQuJvWMQ3h9jCrThub2U-20" value="" style="endArrow=classic;html=1;rounded=0;entryX=0.939;entryY=0.641;entryDx=0;entryDy=0;entryPerimeter=0;dashed=1;fillColor=#dae8fc;strokeColor=#6c8ebf;" edge="1" parent="HQuJvWMQ3h9jCrThub2U-5" target="HQuJvWMQ3h9jCrThub2U-12">
          <mxGeometry width="50" height="50" relative="1" as="geometry">
            <mxPoint x="-20" y="140" as="sourcePoint" />
            <mxPoint x="30" y="90" as="targetPoint" />
          </mxGeometry>
        </mxCell>
        <mxCell id="HQuJvWMQ3h9jCrThub2U-9" value="" style="outlineConnect=0;dashed=0;verticalLabelPosition=bottom;verticalAlign=top;align=center;html=1;shape=mxgraph.aws3.mysql_db_instance;fillColor=#2E73B8;gradientColor=none;" vertex="1" parent="1">
          <mxGeometry x="620" y="166.25" width="100" height="92.5" as="geometry" />
        </mxCell>
        <mxCell id="HQuJvWMQ3h9jCrThub2U-10" value="Master 2" style="text;html=1;align=center;verticalAlign=middle;whiteSpace=wrap;rounded=0;" vertex="1" parent="1">
          <mxGeometry x="640" y="250" width="60" height="30" as="geometry" />
        </mxCell>
        <mxCell id="HQuJvWMQ3h9jCrThub2U-17" value="" style="endArrow=classic;html=1;rounded=0;entryX=0;entryY=0.25;entryDx=0;entryDy=0;fillColor=#dae8fc;strokeColor=#6c8ebf;dashed=1;" edge="1" parent="1" target="HQuJvWMQ3h9jCrThub2U-14">
          <mxGeometry width="50" height="50" relative="1" as="geometry">
            <mxPoint x="310" y="194" as="sourcePoint" />
            <mxPoint x="360" y="150" as="targetPoint" />
          </mxGeometry>
        </mxCell>
        <mxCell id="HQuJvWMQ3h9jCrThub2U-19" value="" style="endArrow=classic;html=1;rounded=0;entryX=0.841;entryY=0.615;entryDx=0;entryDy=0;entryPerimeter=0;dashed=1;fillColor=#dae8fc;strokeColor=#6c8ebf;" edge="1" parent="1" target="HQuJvWMQ3h9jCrThub2U-14">
          <mxGeometry width="50" height="50" relative="1" as="geometry">
            <mxPoint x="620" y="220" as="sourcePoint" />
            <mxPoint x="670" y="170" as="targetPoint" />
          </mxGeometry>
        </mxCell>
        <mxCell id="HQuJvWMQ3h9jCrThub2U-22" value="Port 3306 needs to be opened for PROD 1 Server." style="text;html=1;align=center;verticalAlign=middle;whiteSpace=wrap;rounded=0;" vertex="1" parent="1">
          <mxGeometry x="340" y="220" width="150" height="30" as="geometry" />
        </mxCell>
        <mxCell id="HQuJvWMQ3h9jCrThub2U-24" value="Port 3306 needs to be opened for PROD 2 Server." style="text;html=1;align=center;verticalAlign=middle;whiteSpace=wrap;rounded=0;" vertex="1" parent="1">
          <mxGeometry x="330" y="160" width="150" height="30" as="geometry" />
        </mxCell>
      </root>
    </mxGraphModel>
  </diagram>
</mxfile>
